<svg width="80" height="80" viewBox="0 0 80 80" fill="none" xmlns="http://www.w3.org/2000/svg">
<g id="Play">
<path id="Vector" d="M40 10C23.433 10 10 23.433 10 40C10 56.567 23.433 70 40 70C56.567 70 70 56.567 70 40C70 23.433 56.567 10 40 10ZM49.6496 40.4621L35.0246 51.1027C34.9444 51.1603 34.8499 51.1947 34.7514 51.2021C34.653 51.2095 34.5544 51.1896 34.4665 51.1446C34.3786 51.0996 34.3048 51.0313 34.2532 50.9471C34.2016 50.8629 34.1743 50.7661 34.1741 50.6674V29.3996C34.1738 29.3006 34.2009 29.2035 34.2523 29.1191C34.3038 29.0346 34.3777 28.966 34.4657 28.9209C34.5538 28.8758 34.6526 28.856 34.7513 28.8637C34.8499 28.8713 34.9445 28.9062 35.0246 28.9643L49.6496 39.5982C49.7186 39.6471 49.775 39.7118 49.8139 39.787C49.8528 39.8621 49.8731 39.9455 49.8731 40.0301C49.8731 40.1148 49.8528 40.1981 49.8139 40.2733C49.775 40.3485 49.7186 40.4132 49.6496 40.4621Z" fill="#EDEDF5"/>
</g>
</svg>
